<svg id="e5Prtk9LKuU1" xmlns="http://www.w3.org/2000/svg" xmlns:xlink="http://www.w3.org/1999/xlink" viewBox="0 0 75 75" shape-rendering="geometricPrecision" text-rendering="geometricPrecision"><rect width="75" height="75" rx="20" ry="20" stroke-width="0"/><path d="M81.485,84.65057l2.52032-9.01847h6.08235c1.60876,0,2.91292-1.85156,2.91292-4.13557v-.01254c0-2.28401-1.30416-4.13557-2.91292-4.13557h-3.76738l2.67144-9.55921h4.61153c1.60876,0,2.91292-1.85156,2.91292-4.13557v-.01254c0-2.28401-1.30416-4.13557-2.91292-4.13557h-2.29656l2.1777-7.79245h13.03118l2.17769,7.79245h-2.29656c-1.60876,0-2.91292,1.85156-2.91292,4.13557v.01254c0,2.28401,1.30416,4.13557,2.91292,4.13557h4.61153l2.67144,9.55921h-3.76738c-1.60876,0-2.91292,1.85156-2.91292,4.13557v.01254c0,2.28401,1.30416,4.13557,2.91292,4.13557h6.08235l2.52032,9.01847-.32132.54073h-10.28135c-1.60876,0-2.91292,1.85156-2.91292,4.13557v.01254c0,2.28401,1.30416,4.13557,2.91292,4.13557h5.35887l-3.7556,6.32002h-19.03118l-3.7556-6.32002h5.35887c1.60876,0,2.91292-1.85156,2.91292-4.13557v-.01254c0-2.28401-1.30416-4.13557-2.91292-4.13557h-10.28135l-.32131-.54073Z" transform="matrix(.707107 0.707107-.707107 0.707107 16.819994-83.241329)" fill="#fff" stroke-width="0.8" stroke-linecap="round" stroke-linejoin="round"/></svg>
